<?xml version="1.0" ?><svg viewBox="0 0 22.575 21.682" xmlns="http://www.w3.org/2000/svg"><g data-name="Layer 2" id="Layer_2"><g data-name="Layer 1" id="Layer_1-2"><path d="M9.587,13.459a.342.342,0,0,1,.342.342v5.026a.342.342,0,1,1-.684,0V13.8A.342.342,0,0,1,9.587,13.459Zm2.395.342v5.026a.342.342,0,1,0,.683,0V13.8A.342.342,0,0,0,11.982,13.8Zm2.736,0v5.026a.342.342,0,0,0,.684,0V13.8A.342.342,0,0,0,14.718,13.8Zm2.737,1.825v3.2a.342.342,0,1,0,.684,0v-3.2A.342.342,0,0,0,17.455,15.626ZM6.81,15.4a1.825,1.825,0,0,1-3.649,0A1.825,1.825,0,0,1,6.81,15.4Zm-.685,0a1.14,1.14,0,0,0-2.28,0A1.14,1.14,0,0,0,6.125,15.4Zm14.453-2.843H6.28c-.861.056-1.521-.666-2.062-1.235L1.069,14.473a1.32,1.32,0,0,0,0,1.858l4.282,4.282A1.306,1.306,0,0,0,6.28,21h14.3a1.314,1.314,0,0,0,1.313-1.313V14.026a.342.342,0,0,1,.684,0v5.658a2,2,0,0,1-2,2H6.28A1.985,1.985,0,0,1,4.868,21.1L.585,16.814a2,2,0,0,1,0-2.825l3.149-3.148L.585,7.692a2,2,0,0,1,0-2.825L4.868.585A1.985,1.985,0,0,1,6.28,0H18.129a.34.34,0,0,1,.241.1l4.105,4.105a.341.341,0,0,1,.1.241v6.116A2,2,0,0,1,20.578,12.559ZM18.47,4.105h2.938L18.616,1.313l-.146-.145ZM6.28,11.875h14.3a1.314,1.314,0,0,0,1.313-1.313V4.789H18.129a.342.342,0,0,1-.342-.342V.684H6.28a1.307,1.307,0,0,0-.929.385L1.069,5.351a1.319,1.319,0,0,0,0,1.857L5.351,11.49A1.307,1.307,0,0,0,6.28,11.875Zm12.9-6.169a.342.342,0,0,0-.341.342V8.906H9.929V3.653h6.512a.342.342,0,0,0,0-.684H9.587a.342.342,0,0,0-.342.342V9.248a.342.342,0,0,0,.342.342h9.59a.341.341,0,0,0,.342-.342v-3.2A.341.341,0,0,0,19.177,5.706ZM6.81,6.28a1.825,1.825,0,0,1-3.649,0A1.825,1.825,0,0,1,6.81,6.28Zm-.685,0a1.14,1.14,0,0,0-2.28,0A1.14,1.14,0,0,0,6.125,6.28Z" data-name="title tags" id="title_tags"/></g></g></svg>